<?xml version="1.0" encoding="UTF-8" standalone="no"?>
<!-- Created with Inkscape (http://www.inkscape.org/) -->

<svg
   xmlns:dc="http://purl.org/dc/elements/1.1/"
   xmlns:cc="http://creativecommons.org/ns#"
   xmlns:rdf="http://www.w3.org/1999/02/22-rdf-syntax-ns#"
   xmlns:svg="http://www.w3.org/2000/svg"
   xmlns="http://www.w3.org/2000/svg"
   xmlns:sodipodi="http://sodipodi.sourceforge.net/DTD/sodipodi-0.dtd"
   xmlns:inkscape="http://www.inkscape.org/namespaces/inkscape"
   width="135.46666mm"
   height="135.46666mm"
   viewBox="0 0 135.46666 135.46666"
   version="1.1"
   id="svg8"
   inkscape:version="0.92.3 (2405546, 2018-03-11)"
   sodipodi:docname="python.svg">
  <defs
     id="defs2">
    <linearGradient
       gradientUnits="userSpaceOnUse"
       id="SVGID_1_"
       x1="1.7255629"
       x2="21.241331"
       y1="8.2995186"
       y2="17.39987">
      <stop
         offset="0"
         style="stop-color:#FFFFFF;stop-opacity:0.2"
         id="stop55" />
      <stop
         offset="1"
         style="stop-color:#FFFFFF;stop-opacity:0"
         id="stop57" />
    </linearGradient>
  </defs>
  <sodipodi:namedview
     id="base"
     pagecolor="#ffffff"
     bordercolor="#666666"
     borderopacity="1.0"
     inkscape:pageopacity="0.0"
     inkscape:pageshadow="2"
     inkscape:zoom="1"
     inkscape:cx="189.17472"
     inkscape:cy="139.28565"
     inkscape:document-units="mm"
     inkscape:current-layer="layer1"
     showgrid="false"
     inkscape:pagecheckerboard="false"
     showborder="false"
     inkscape:snap-bbox="true"
     inkscape:snap-nodes="true"
     inkscape:window-width="1853"
     inkscape:window-height="1025"
     inkscape:window-x="67"
     inkscape:window-y="27"
     inkscape:window-maximized="1"
     fit-margin-top="0"
     fit-margin-left="0"
     fit-margin-right="0"
     fit-margin-bottom="0" />
  <metadata
     id="metadata5">
    <rdf:RDF>
      <cc:Work
         rdf:about="">
        <dc:format>image/svg+xml</dc:format>
        <dc:type
           rdf:resource="http://purl.org/dc/dcmitype/StillImage" />
        <dc:title></dc:title>
      </cc:Work>
    </rdf:RDF>
  </metadata>
  <g
     inkscape:label="Layer 1"
     inkscape:groupmode="layer"
     id="layer1"
     transform="translate(-33.536957,-26.028858)">
    <g
       id="g4635"
       style="fill:none">
      <rect
         y="26.028858"
         x="33.536957"
         height="135.46666"
         width="135.46666"
         id="rect4587"
         style="fill:none;stroke-width:0.32858005" />
    </g>
    <g
       transform="matrix(4.2333334,0,0,4.4097222,50.470286,40.845522)"
       id="g62">
      <rect
         style="fill:#0175bc"
         height="2.5"
         id="XMLID_1489_"
         width="2.5"
         x="11"
         y="3" />
      <rect
         style="opacity:0.1;fill:#010101"
         height="0.25"
         width="2.5"
         x="11"
         y="5.25"
         id="rect3" />
      <rect
         style="opacity:0.2;fill:#ffffff"
         height="0.25"
         width="2.5"
         x="11"
         y="3"
         id="rect5" />
      <rect
         style="fill:#0175bc"
         height="2.5"
         id="XMLID_1314_"
         width="2.5"
         x="11"
         y="6" />
      <rect
         style="opacity:0.1;fill:#010101"
         height="0.25"
         width="2.5"
         x="11"
         y="8.25"
         id="rect8" />
      <rect
         style="opacity:0.2;fill:#ffffff"
         height="0.25"
         width="2.5"
         x="11"
         y="6"
         id="rect10" />
      <rect
         style="fill:#0175bc"
         height="2.5"
         id="XMLID_1315_"
         width="2.5"
         x="11"
         y="9" />
      <rect
         style="opacity:0.1;fill:#010101"
         height="0.25"
         width="2.5"
         x="11"
         y="11.25"
         id="rect13" />
      <rect
         style="opacity:0.2;fill:#ffffff"
         height="0.25"
         width="2.5"
         x="11"
         y="9"
         id="rect15" />
      <rect
         style="fill:#0175bc"
         height="2.5"
         id="XMLID_1307_"
         width="2.5"
         x="8"
         y="6" />
      <rect
         style="opacity:0.1;fill:#010101"
         height="0.25"
         width="2.5"
         x="8"
         y="8.25"
         id="rect18" />
      <rect
         style="opacity:0.2;fill:#ffffff"
         height="0.25"
         width="2.5"
         x="8"
         y="6"
         id="rect20" />
      <rect
         style="fill:#0175bc"
         height="2.5"
         id="XMLID_1306_"
         width="2.5"
         x="8"
         y="9" />
      <rect
         style="opacity:0.1;fill:#010101"
         height="0.25"
         width="2.5"
         x="8"
         y="11.25"
         id="rect23" />
      <rect
         style="opacity:0.2;fill:#ffffff"
         height="0.25"
         width="2.5"
         x="8"
         y="9"
         id="rect25" />
      <rect
         style="fill:#0175bc"
         height="2.5"
         id="XMLID_1317_"
         width="2.5"
         x="5"
         y="6" />
      <rect
         style="opacity:0.1;fill:#010101"
         height="0.25"
         width="2.5"
         x="5"
         y="8.25"
         id="rect28" />
      <rect
         style="opacity:0.2;fill:#ffffff"
         height="0.25"
         width="2.5"
         x="5"
         y="6"
         id="rect30" />
      <rect
         style="fill:#0175bc"
         height="2.5"
         id="XMLID_1316_"
         width="2.5"
         x="5"
         y="9" />
      <rect
         style="opacity:0.1;fill:#010101"
         height="0.25"
         width="2.5"
         x="5"
         y="11.25"
         id="rect33" />
      <rect
         style="opacity:0.2;fill:#ffffff"
         height="0.25"
         width="2.5"
         x="5"
         y="9"
         id="rect35" />
      <rect
         style="fill:#0175bc"
         height="2.5"
         id="XMLID_1318_"
         width="2.5"
         x="2"
         y="9" />
      <rect
         style="opacity:0.1;fill:#010101"
         height="0.25"
         width="2.5"
         x="2"
         y="11.25"
         id="rect38" />
      <rect
         style="opacity:0.2;fill:#ffffff"
         height="0.25"
         width="2.5"
         x="2"
         y="9"
         id="rect40" />
      <rect
         style="fill:#0175bc"
         height="2.5"
         id="XMLID_1305_"
         width="2.5"
         x="14"
         y="9" />
      <rect
         style="opacity:0.1;fill:#010101"
         height="0.25"
         width="2.5"
         x="14"
         y="11.25"
         id="rect43" />
      <rect
         style="opacity:0.2;fill:#ffffff"
         height="0.25"
         width="2.5"
         x="14"
         y="9"
         id="rect45" />
      <path
         style="fill:#0175bc"
         inkscape:connector-curvature="0"
         d="M 23.594727,11.223134 C 23.525391,11.178212 22.09668,10.275868 20.746094,10.490712 20.418945,9.1215715 19.163086,8.2690324 19.101562,8.2280168 L 18.753906,7.9965715 c 0,0 -0.217569,0.2255478 -0.290039,0.3007813 -0.02647,0.027482 -0.09469,0.1059952 -0.176022,0.2478724 -0.224847,0.3922462 -0.549884,1.268816 -0.369876,2.8903218 0.01758,0.152344 -0.02832,0.302734 -0.125977,0.411133 C 17.704102,11.945313 17.582031,12 17.448242,12 H 0 v 0.5 c 0,7.671875 5.5947266,8.5 8,8.5 6.193359,0 10.498047,-3.761719 12.376953,-7.077148 2.475586,-0.394532 3.333008,-1.949718 3.37793,-2.023937 L 24,11.483876 Z"
         id="path47" />
      <path
         style="opacity:0.2;fill:#ffffff"
         inkscape:connector-curvature="0"
         d="M 17.448242,12 H 0 v 0.25 h 17.448242 c 0.133789,0 0.25586,-0.05469 0.34375,-0.15332 0.09766,-0.108399 0.143555,-0.258789 0.125977,-0.411133 -0.0057,-0.05157 -0.0048,-0.09277 -0.0095,-0.142883 -0.0093,0.113098 -0.04236,0.22174 -0.116455,0.304016 C 17.704102,11.945313 17.582031,12 17.448242,12 Z"
         id="path49" />
      <path
         style="opacity:0.2;fill:#ffffff"
         inkscape:connector-curvature="0"
         d="M 23.594727,11.223145 C 23.525391,11.178223 22.09668,10.275879 20.746094,10.490723 20.418945,9.121582 19.163086,8.2690429 19.101562,8.2280273 L 18.753906,7.996582 c 0,0 -0.217571,0.2255449 -0.290039,0.3007813 -0.01986,0.020621 -0.06306,0.070265 -0.117575,0.1540194 -0.188186,0.2891331 -0.511184,0.9847698 -0.474222,2.2961763 0.01148,-1.5025027 0.507996,-2.1130984 0.591797,-2.2001956 l 0.290039,-0.3007813 0.347657,0.2314453 c 0.06152,0.041016 1.317382,0.8935547 1.644531,2.2626956 C 22.09668,10.525879 24,11.483887 24,11.483887 Z"
         id="path51" />
      <path
         style="opacity:0.1;fill:#010101"
         inkscape:connector-curvature="0"
         d="m 23.754883,11.648926 c -0.04492,0.07422 -0.902344,1.629394 -3.37793,2.023926 C 18.498047,16.988281 14.193359,20.75 8,20.75 c -2.4052734,0 -8,-0.828125 -8,-8.5 v 0.25 c 0,7.671875 5.5947266,8.5 8,8.5 6.193359,0 10.498047,-3.761719 12.376953,-7.077148 2.475586,-0.394532 3.333008,-1.949707 3.37793,-2.023926 L 24,11.483887 23.893005,11.415039 Z"
         id="path53" />
      <linearGradient
         gradientUnits="userSpaceOnUse"
         id="linearGradient147"
         x1="1.7255629"
         x2="21.241331"
         y1="8.2995186"
         y2="17.39987">
        <stop
           offset="0"
           style="stop-color:#FFFFFF;stop-opacity:0.2"
           id="stop143" />
        <stop
           offset="1"
           style="stop-color:#FFFFFF;stop-opacity:0"
           id="stop145" />
      </linearGradient>
      <path
         style="fill:url(#SVGID_1_)"
         inkscape:connector-curvature="0"
         d="M 13.5,6 H 11 v 2.5 h 2.5 z m 0,3 H 11 v 2.5 h 2.5 z m 3,0 H 14 v 2.5 h 2.5 z m -3,-6 H 11 v 2.5 h 2.5 z m -3,3 H 8 v 2.5 h 2.5 z m -6,3 H 2 v 2.5 h 2.5 z m 19.094727,2.223145 C 23.525391,11.178223 22.09668,10.275879 20.746094,10.490723 20.418945,9.121582 19.163086,8.2690429 19.101562,8.2280273 L 18.753906,7.996582 c 0,0 -0.21759,0.2255249 -0.290039,0.3007813 -0.02649,0.027466 -0.09466,0.105957 -0.176025,0.2478638 -0.224854,0.3922119 -0.549866,1.2687988 -0.369873,2.8903199 0.01758,0.152344 -0.02832,0.302734 -0.125977,0.411133 C 17.704102,11.945313 17.582031,12 17.448242,12 H 0 v 0.5 c 0,7.671875 5.5947266,8.5 8,8.5 6.193359,0 10.498047,-3.761719 12.376953,-7.077148 2.475586,-0.394532 3.333008,-1.949707 3.37793,-2.023926 L 24,11.483887 Z M 10.5,9 H 8 v 2.5 h 2.5 z M 7.5,6 H 5 v 2.5 h 2.5 z m 0,3 H 5 v 2.5 h 2.5 z"
         id="path60" />
    </g>
    <g
       transform="matrix(1.8741319,0,0,1.793287,-25.465126,156.90941)"
       id="g64" />
    <g
       transform="matrix(1.8741319,0,0,1.793287,-25.465126,156.90941)"
       id="g66" />
    <g
       transform="matrix(1.8741319,0,0,1.793287,-25.465126,156.90941)"
       id="g68" />
    <g
       transform="matrix(1.8741319,0,0,1.793287,-25.465126,156.90941)"
       id="g70" />
    <g
       transform="matrix(1.8741319,0,0,1.793287,-25.465126,156.90941)"
       id="g72" />
    <g
       transform="matrix(1.8741319,0,0,1.793287,-25.465126,156.90941)"
       id="g74" />
    <g
       transform="matrix(1.8741319,0,0,1.793287,-25.465126,156.90941)"
       id="g76" />
    <g
       transform="matrix(1.8741319,0,0,1.793287,-25.465126,156.90941)"
       id="g78" />
    <g
       transform="matrix(1.8741319,0,0,1.793287,-25.465126,156.90941)"
       id="g80" />
    <g
       transform="matrix(1.8741319,0,0,1.793287,-25.465126,156.90941)"
       id="g82" />
    <g
       transform="matrix(1.8741319,0,0,1.793287,-25.465126,156.90941)"
       id="g84" />
    <g
       transform="matrix(1.8741319,0,0,1.793287,-25.465126,156.90941)"
       id="g86" />
    <g
       transform="matrix(1.8741319,0,0,1.793287,-25.465126,156.90941)"
       id="g88" />
    <g
       transform="matrix(1.8741319,0,0,1.793287,-25.465126,156.90941)"
       id="g90" />
    <g
       transform="matrix(1.8741319,0,0,1.793287,-25.465126,156.90941)"
       id="g92" />
  </g>
</svg>
