<?xml version="1.0" encoding="UTF-8" standalone="no"?>
<!-- Created with Inkscape (http://www.inkscape.org/) -->

<svg
   xmlns:dc="http://purl.org/dc/elements/1.1/"
   xmlns:cc="http://creativecommons.org/ns#"
   xmlns:rdf="http://www.w3.org/1999/02/22-rdf-syntax-ns#"
   xmlns:svg="http://www.w3.org/2000/svg"
   xmlns="http://www.w3.org/2000/svg"
   xmlns:sodipodi="http://sodipodi.sourceforge.net/DTD/sodipodi-0.dtd"
   xmlns:inkscape="http://www.inkscape.org/namespaces/inkscape"
   width="135.46666mm"
   height="135.46666mm"
   viewBox="0 0 135.46666 135.46666"
   version="1.1"
   id="svg8"
   inkscape:version="0.92.3 (2405546, 2018-03-11)"
   sodipodi:docname="docker.svg">
  <defs
     id="defs2">
    <linearGradient
       gradientUnits="userSpaceOnUse"
       id="SVGID_1_"
       x1="1.7255629"
       x2="21.241331"
       y1="8.2995186"
       y2="17.39987">
      <stop
         offset="0"
         style="stop-color:#FFFFFF;stop-opacity:0.2"
         id="stop55" />
      <stop
         offset="1"
         style="stop-color:#FFFFFF;stop-opacity:0"
         id="stop57" />
    </linearGradient>
  </defs>
  <sodipodi:namedview
     id="base"
     pagecolor="#ffffff"
     bordercolor="#666666"
     borderopacity="1.0"
     inkscape:pageopacity="0.0"
     inkscape:pageshadow="2"
     inkscape:zoom="1"
     inkscape:cx="69.17472"
     inkscape:cy="299.28565"
     inkscape:document-units="mm"
     inkscape:current-layer="layer1"
     showgrid="false"
     inkscape:pagecheckerboard="false"
     showborder="false"
     inkscape:snap-bbox="true"
     inkscape:snap-nodes="true"
     inkscape:window-width="1853"
     inkscape:window-height="1025"
     inkscape:window-x="67"
     inkscape:window-y="27"
     inkscape:window-maximized="1"
     fit-margin-top="0"
     fit-margin-left="0"
     fit-margin-right="0"
     fit-margin-bottom="0" />
  <metadata
     id="metadata5">
    <rdf:RDF>
      <cc:Work
         rdf:about="">
        <dc:format>image/svg+xml</dc:format>
        <dc:type
           rdf:resource="http://purl.org/dc/dcmitype/StillImage" />
        <dc:title></dc:title>
      </cc:Work>
    </rdf:RDF>
  </metadata>
  <g
     inkscape:label="Layer 1"
     inkscape:groupmode="layer"
     id="layer1"
     transform="translate(-33.536957,-26.028858)">
    <g
       id="g4635"
       style="fill:none">
      <rect
         y="26.028858"
         x="33.536957"
         height="135.46666"
         width="135.46666"
         id="rect4587"
         style="fill:none;stroke-width:0.32858005" />
    </g>
    <g
       transform="matrix(1.8741319,0,0,1.793287,-25.465126,156.90941)"
       id="g64" />
    <g
       transform="matrix(1.8741319,0,0,1.793287,-25.465126,156.90941)"
       id="g66" />
    <g
       transform="matrix(1.8741319,0,0,1.793287,-25.465126,156.90941)"
       id="g68" />
    <g
       transform="matrix(1.8741319,0,0,1.793287,-25.465126,156.90941)"
       id="g70" />
    <g
       transform="matrix(1.8741319,0,0,1.793287,-25.465126,156.90941)"
       id="g72" />
    <g
       transform="matrix(1.8741319,0,0,1.793287,-25.465126,156.90941)"
       id="g74" />
    <g
       transform="matrix(1.8741319,0,0,1.793287,-25.465126,156.90941)"
       id="g76" />
    <g
       transform="matrix(1.8741319,0,0,1.793287,-25.465126,156.90941)"
       id="g78" />
    <g
       transform="matrix(1.8741319,0,0,1.793287,-25.465126,156.90941)"
       id="g80" />
    <g
       transform="matrix(1.8741319,0,0,1.793287,-25.465126,156.90941)"
       id="g82" />
    <g
       transform="matrix(1.8741319,0,0,1.793287,-25.465126,156.90941)"
       id="g84" />
    <g
       transform="matrix(1.8741319,0,0,1.793287,-25.465126,156.90941)"
       id="g86" />
    <g
       transform="matrix(1.8741319,0,0,1.793287,-25.465126,156.90941)"
       id="g88" />
    <g
       transform="matrix(1.8741319,0,0,1.793287,-25.465126,156.90941)"
       id="g90" />
    <g
       transform="matrix(1.8741319,0,0,1.793287,-25.465126,156.90941)"
       id="g92" />
    <path
       style="stroke-width:2.89810491"
       inkscape:connector-curvature="0"
       d="m 83.55144,127.76014 c -3.359379,-2.9282 -6.939033,-5.72827 -9.384227,-9.67522 -5.1492,-6.96365 -9.114362,-15.02231 -11.82389,-23.495766 -1.638383,-5.508698 -2.202869,-11.416932 -4.312116,-16.715189 -2.208373,-3.843258 0.380021,-8.052547 4.185452,-9.272594 1.693454,-0.359684 4.670079,-2.135165 1.0739,-0.866297 -3.221695,2.617108 -3.532852,-2.379164 -0.228543,-2.696367 2.25794,-0.335475 3.084016,-2.379163 2.313012,-4.215398 -2.423158,-1.750812 5.870643,-3.669419 1.696211,-6.283414 -4.34516,-5.185337 6.079917,-6.185825 3.508064,-0.286479 -0.611295,4.532601 7.285986,-0.835748 5.452095,4.404464 1.864184,2.516467 6.977583,0.573536 6.84817,4.102537 2.715046,0.20751 3.645745,2.736081 6.195563,2.928201 2.643452,1.320745 7.426427,2.360892 8.324098,5.658174 -2.615911,2.296792 -8.682061,-4.74311 -8.976686,1.61662 0.793029,9.394631 0.589267,19.069914 3.689801,28.016138 1.467653,5.41411 5.025288,9.67834 8.233216,13.8968 3.07574,4.12996 7.24192,7.03984 11.48246,9.4861 3.72283,1.94604 7.73759,3.23325 11.7936,4.04461 1.64387,-1.39395 4.55168,-6.57623 7.1153,-4.3923 0.12385,2.45848 -5.09415,5.13657 -0.24771,4.86508 2.84999,-0.95167 4.82429,2.44014 7.16759,-0.62226 2.16153,2.83668 8.97667,-1.80878 7.44295,3.98357 -2.07895,1.4855 -5.11069,0.5887 -7.1924,2.63233 -3.43371,-1.90026 -6.16801,1.69898 -9.96796,1.2445 -4.22123,0.83879 -8.51407,1.17432 -12.79317,1.18044 -7.02161,-0.61002 -14.18921,-0.87236 -20.866674,-3.58094 -3.764149,-1.21094 -7.434684,-3.584 -10.73898,-5.96009 z m 5.928463,2.8459 c 3.673287,1.75691 7.269473,3.61141 11.289717,4.17269 6.3883,0.98215 12.98318,2.50112 19.39352,1.11633 -2.90232,-1.45187 -5.90097,0.56431 -8.79221,-1.03703 -3.46952,0.82353 -7.15936,-0.21327 -10.739,-0.72294 -4.006463,-1.97653 -8.332338,-3.33693 -12.082726,-5.90517 -4.68936,-1.89728 2.423141,2.43404 3.689801,2.78485 2.929818,1.84229 -3.22169,-0.91506 -4.091837,-1.70815 -2.456186,-1.52509 -2.767343,-1.20789 -0.24233,0.34181 l 1.542002,0.95777 z m -6.994098,-5.47212 c 3.560388,1.46411 -0.01699,-2.77568 -1.643891,-2.53167 -0.721449,-1.38784 -2.761854,-2.26631 -1.321724,-3.01051 -2.58837,0.99431 -2.709526,-3.78228 -3.923857,-3.09906 -2.737066,-0.95777 -1.065634,-4.34958 -4.32313,-6.43594 -0.297387,-2.19614 -3.238216,-4.09641 -4.174437,-7.40593 -0.413014,-1.69587 -3.323579,-6.557888 -1.536503,-2.0314 1.51998,4.36181 4.196467,8.0922 6.426869,11.81955 1.729255,3.55045 3.772412,7.25952 6.922524,9.477 1.062881,1.12857 2.087213,2.85805 3.585159,3.21186 z M 72.23145,112.65858 c 0.123857,-0.59481 0.649853,1.28719 0,0 z m 14.519661,14.2231 c 0.787524,-0.39023 -1.134478,-0.49398 0,0 z m 1.927506,0.78088 c -0.201026,-1.0767 -0.881156,0.60397 0,0 z m 2.423158,1.1164 c 1.150992,-1.21399 -1.776057,-0.76259 0,0 z m 4.146902,2.56218 c 0.699396,-1.14384 -2.238662,-0.42712 0,0 z M 87.2908,125.19498 c 1.789836,-1.2811 -2.31301,-0.0173 0,0 z m 1.817377,1.00653 c -0.05505,-0.67712 -0.6471,0.30492 0,0 z m 9.067549,6.27125 c 1.459414,1.01876 8.514094,2.23275 4.097354,0.41791 -0.74347,0.17061 -8.191927,-2.33645 -4.097354,-0.41791 z M 83.77999,120.05228 c -0.137619,-0.67711 -2.26345,-0.75031 0,0 z m 4.221251,2.72694 c 1.101431,-0.85409 -2.279983,-0.65586 0,0 z m 3.579654,2.44013 c 1.577817,-0.65884 -2.555324,-0.66191 0,0 z m -9.524649,-7.24424 c 1.707229,1.45187 6.900482,0.1833 2.615909,-0.8663 -1.946789,-1.1499 -6.333251,-1.93688 -3.342863,0.69245 l 0.724201,0.17409 z m 11.895494,8.0434 c 0.715927,-1.34209 -2.990405,-0.76867 0,0 z m -3.615469,-3.18138 c 4.185452,1.31159 -3.516316,-2.9282 -1.032589,-0.48822 l 0.550717,0.27438 0.481854,0.20751 z m 7.247436,4.63631 c 3.965193,0.0404 -3.579655,-0.61002 0,0 z M 80.530758,115.43426 c -0.154099,-0.81742 -0.977523,0.0669 0,0 z m 23.755182,16.20275 c 0.10466,-1.47632 -1.2942,1.09807 0,0 z M 87.296323,120.0157 c -0.239577,-0.77784 -1.23912,-0.0288 0,0 z m -6.388317,-5.09388 c 2.27446,-0.15275 -3.111561,-1.11022 0,0 z m -7.564114,-5.41105 c -0.283598,-1.20789 -2.472711,-2.17178 0,0 z m 19.858857,13.96083 c -0.413011,-0.52743 -0.192734,0.11301 0,0 z m 12.358131,8.40331 c -0.0364,-0.80526 -0.67189,0.30492 0,0 z M 92.109592,122.221 c 0.220259,-1.03709 -1.941286,-0.31415 0,0 z m -9.207989,-6.46648 c 1.693452,-0.19828 -2.712294,-1.26581 0,0 z m 15.57427,10.72153 c 2.637957,-1.1591 -2.569086,-0.5643 0,0 z m -8.101052,-6.09129 c 3.037213,0.4329 -3.615453,-2.28767 -0.66912,-0.24382 z m 10.560019,7.19238 c 2.8362,-1.87583 1.89996,4.40146 4.81327,0.53088 2.87198,-2.32424 -2.47822,2.87331 1.05737,0.41502 2.56081,-1.89723 6.34151,0.89984 8.72887,1.80878 1.71824,-0.0917 3.38689,1.64713 5.14919,0.58872 3.3869,-1.01266 -6.6306,-1.50072 -4.0037,-3.29425 -3.10053,1.0005 -5.39155,-1.18961 -6.91978,-3.39181 -3.4805,-0.89068 -7.50075,-2.86111 -9.23828,-6.27124 -0.707668,-1.28109 1.01884,0.18271 -0.611284,-1.9125 -2.092734,-2.06496 -3.139084,-4.41057 -4.54892,-6.92399 -1.679689,-0.99133 -1.880699,-3.91646 -2.04868,-0.0974 0.01359,-2.40965 -2.029396,-4.03539 -2.533287,-3.36132 -0.0085,-2.31818 2.189102,-1.15907 0.649836,-2.87327 -0.330423,-2.40971 -1.420846,-4.910843 -1.745763,-7.631657 -0.509448,-1.311583 -0.0717,-4.117748 -1.734771,-1.149897 -0.605781,3.132552 -0.20101,-3.849366 0.743469,-1.549527 1.23912,-2.348659 -0.446109,-2.074123 -0.512132,-1.747755 0.80679,-1.982639 0.512132,-4.794927 -0.212053,-3.72129 0.429559,-2.104609 0.680146,-7.732231 -0.64158,-6.734854 0.798534,-2.196158 1.519983,-10.056535 -1.960551,-7.061237 -1.409836,0.02306 -3.849524,0.567195 -5.003269,1.201772 3.615452,2.208372 -0.363469,0.799204 -1.839396,0.445572 -0.192735,2.043631 -1.652148,1.159118 -3.469525,1.180446 2.913304,0.396575 -1.418093,3.294221 -3.08401,2.171765 -2.169824,1.14685 1.872431,4.014065 0.04112,4.901686 0.225771,1.332914 -3.323584,-0.481883 -3.045469,2.604893 -2.103738,-0.982217 -0.289114,3.660242 0.765501,2.089399 3.579647,1.073635 2.519518,3.519888 2.610397,5.847231 -0.583763,1.354295 -2.880252,-3.184416 -0.512192,-2.973975 -1.872441,-3.364373 -2.065188,-1.220096 -3.62097,0.347588 -0.357956,0.113012 3.965165,2.226642 1.25013,3.263736 2.387361,0.408669 2.456199,2.7238 2.940816,4.184901 1.431872,1.656223 1.13723,-1.830118 2.85547,0.162035 -1.087653,-1.769157 -5.75498,-4.993225 -1.99635,-3.965298 -0.01919,-1.781301 -0.68013,-3.221024 0.473632,-3.187478 1.142751,-2.287692 -1.195048,5.642897 1.376807,2.732969 0.710423,-0.344706 0.889396,-2.287628 2.167067,0.183295 1.855909,2.025368 0.671871,3.489472 -1.949543,1.634953 0.46811,1.762981 3.505305,2.391326 2.932571,5.145697 0.605781,2.42491 1.451138,1.53118 2.189102,1.39087 0.550716,2.35479 0.90868,0.62224 0.936221,-0.49744 2.648938,0.62835 2.026643,2.36388 2.858222,3.57483 1.825617,0.91506 -2.61591,-6.18583 0.523175,-2.13511 3.296039,3.29422 1.239119,4.67596 -1.720992,4.14825 1.872441,-0.16775 2.478222,2.80623 4.818774,2.69947 2.13679,1.12858 3.579672,5.45073 -0.09905,3.64804 -1.274918,-1.27499 -5.79905,-2.84889 -2.103744,-0.42713 3.408938,1.75081 6.118463,2.79402 9.406245,4.99322 2.351562,1.83012 3.367636,3.98967 4.259797,4.41363 -1.977079,1.0462 -5.958753,-0.83576 -3.028934,-1.41222 -1.844901,-0.37237 -3.921121,-1.40312 -2.153305,1.14073 1.503452,1.39089 5.322668,1.24447 6.008318,1.40311 -0.578263,1.41528 -1.577801,1.52509 0.0219,1.63796 -1.784316,1.05534 0.57275,1.22009 0.73797,1.82102 z m -3.651262,-11.41999 c -1.087671,-1.2597 -1.368533,-3.61449 -0.192753,-1.56474 0.605798,0.2686 1.927509,3.85242 0.192753,1.56474 z m 11.895492,8.33015 c 0.67741,-0.0461 0.0207,0.57067 0,0 z M 95.576347,113.03378 c -0.04418,-1.90334 0.39101,1.4641 0,0 z m -1.184038,-1.75999 c -1.368533,-2.9282 1.720992,0.82353 0,0 z M 80.068153,100.29304 c 0.804055,-0.23807 0.396514,1.51897 0,0 z m 11.399843,6.84466 c 0.495651,-2.05278 0.550716,1.72033 0,0 z m -8.054227,-6.20414 c -0.567247,-1.128581 1.184037,1.06147 0,0 z m 6.911492,2.45236 c -1.294185,-3.21186 0.919706,-1.75387 0.28912,0.52455 z M 78.407747,94.583047 c -0.550716,-1.055366 -1.533744,-4.148297 -1.22534,-5.093857 0.275374,1.537297 2.951837,6.618942 1.310699,2.135157 -1.811855,-3.782276 2.167065,1.226171 2.577359,2.171715 0.192735,0.936458 -1.117964,-0.255923 -0.231303,1.946049 -1.619119,-2.507253 -0.955505,1.384779 -2.428662,-1.128564 z m -3.681543,-2.812289 c 0.151381,-2.452358 0.842588,1.67762 0,0 z m 1.657653,0.634418 c 0.790275,-1.848408 1.33824,2.577437 0,0 z m -4.020241,-3.355221 c -1.371279,-1.509859 -2.36257,-2.8977 0.06609,-0.936393 0.936221,0.04038 -2.078956,-3.163084 0.225782,-1.018807 2.423157,0.488218 1.195064,4.401467 -0.289104,1.952155 z m 2.092735,-0.06107 c 0.798532,-0.875409 0.424037,0.860182 0,0 z m 1.288679,0.457684 c -1.211578,-2.507252 1.464901,1.052305 0,0 z m -2.560845,-2.70859 c -3.987189,-3.934745 5.011526,2.052792 0.649853,0.732042 z m 11.421879,7.351 c -1.726496,-1.143854 -0.459836,-8.064722 0.129465,-3.33389 1.679688,-0.600855 -0.09361,2.446253 1.156513,2.415768 -0.192752,1.921655 -0.757247,2.614044 -1.285927,0.915061 z m 4.224003,2.766562 c 0.165143,-2.086337 0.357964,1.42751 0,0 z M 88.097608,96.05029 c 0.192735,-0.890683 0.01699,1.049259 0,0 z M 73.993745,85.444672 c -2.560833,-3.913412 7.442941,3.959188 1.641138,0.99132 -0.605798,-0.176961 -1.335487,-0.238059 -1.641138,-0.99132 z m 8.136849,4.776657 c -0.242329,-3.294221 0.539707,0.548747 0,0 z m 6.176298,4.3923 c 0.476384,-1.875896 0.03585,1.241429 0,0 z M 74.387507,83.950072 c 1.522734,-0.35967 6.333251,2.958701 1.913744,0.945561 -0.487377,-0.597794 -1.530992,-0.326255 -1.913744,-0.945561 z m 13.068522,7.216818 c 0.165144,-3.370496 0.908679,-2.01314 0.0051,0.488218 z M 75.519232,82.778795 c 0.622312,-1.006545 -1.646643,-4.55392 0.324918,-1.271913 0.826074,0.750377 2.469965,1.256704 1.04635,1.573905 2.244185,2.196141 -0.550715,0.594798 -1.368533,-0.304923 z m 11.289696,7.338836 c 0.426808,-3.84326 0.377265,2.247975 0,0 z M 74.225048,79.234465 c 0.473632,-0.22596 0.24785,0.701557 0,0 z m 2.946332,1.942987 c 0.757247,-1.76303 1.398827,1.964319 0,0 z m 8.307566,5.118235 c -0.0051,-0.670993 0.156988,0.985213 0,0 z M 84.99709,85.118303 c -1.150991,-3.150805 1.101433,1.6685 0,0 z m -0.70767,-2.068017 c -0.192736,-1.302413 0.660863,1.634905 0,0 z m 1.150992,-2.074123 c -0.793028,-1.543405 0.99956,-6.802012 1.200569,-3.538273 -0.834331,2.543907 -0.239577,3.965294 0.338714,0.549316 1.073892,-2.68414 -0.231303,5.298258 -1.542018,2.989249 z m 1.184055,-7.826882 c 0.344219,-0.469781 0.07714,0.564312 0,0 z m -1.979836,43.163529 c -0.46811,-0.45767 0.06049,0.28649 0,0 z m 4.075306,2.28158 c 2.266203,0.64662 2.257947,-0.39024 0.206532,-0.70156 -1.101433,-1.13468 -4.576462,-2.33951 -1.464901,-0.14005 0.203779,0.61003 0.853614,0.56432 1.258387,0.83883 z M 80.679472,112.677 c 1.247378,1.03704 4.700371,2.92209 1.77881,0.39658 0.985797,-1.26893 -1.886204,-1.94605 -0.936221,-2.79402 -2.423141,-1.64711 -1.913744,-1.52509 -0.214754,-1.44277 -2.913287,-1.44272 0.421285,-1.33291 0.264348,-2.07413 -1.123452,-0.24382 -5.578757,-2.19613 -2.957342,0.15845 -2.665471,-1.50375 -0.633322,0.56144 -1.440129,0.34471 -2.753581,-0.82359 2.423157,2.29983 -0.432313,1.52507 1.561269,1.37264 4.207472,3.5169 0.660863,1.45195 -0.468127,0.74422 2.538792,1.87584 3.304296,2.44014 z m 4.259801,2.71463 c 5.176739,1.84846 -2.541561,-2.25712 0,0 z m 21.808397,14.63497 c 0.0661,-1.1408 -0.70769,0.97604 0,0 z m 2.24141,1.04619 c 1.19507,-1.28108 0.052,2.04362 1.98258,-0.31415 0.0209,-1.68678 -0.0552,-2.68421 -2.2194,-0.63445 -0.59753,0.36602 -0.86187,1.92165 0.23937,0.94554 z M 73.404478,106.30816 c -0.366238,-1.59835 -2.571851,-1.59223 0,0 z m 2.395617,1.7386 c -0.889413,-1.63184 -3.172131,-1.47937 0,0 z m 13.619239,9.09874 c 1.329982,1.31164 6.107453,0.96083 1.613597,0.16202 -0.660863,-1.08891 -4.22125,-0.82352 -1.613597,-0.16202 z m 18.718906,12.81089 c 2.04591,-1.90333 -1.9826,0.84795 0,0 z m 4.25703,3.23935 c 0.0153,-0.61003 -0.88118,0.26515 0,0 z m 0.0103,-0.85408 c 2.26617,-2.65364 -2.19463,0.15274 0,0 z M 67.519462,100.84824 c -1.927512,-3.050226 -1.200564,-4.422794 -3.061989,-6.91482 -0.352443,-1.90638 -3.194158,-6.231589 -1.470415,-1.647103 1.580559,2.684148 2.048667,6.832443 4.532404,8.571033 z m 44.167548,30.64242 c 4.17163,-2.98313 -1.70725,-1.29941 0,0 z m 3.1831,1.38174 c 2.09275,-1.98266 -1.32171,-0.41503 0,0 z M 72.696196,102.93765 c 0.597541,-0.98522 -1.542,-0.128 0,0 z m 41.510294,28.99225 c 2.02114,-1.44279 -0.46831,-1.22011 -0.36632,0.13141 z M 86.77522,112.77456 c -0.06881,-0.97606 -1.068404,0.0824 0,0 z m 1.693451,1.07974 c -0.539707,-1.20788 -0.826074,0.18906 0,0 z m 28.981509,19.04858 c 2.58834,-2.07413 -1.56957,-0.39657 -0.54249,0.39659 z m -0.99129,-0.53088 c 2.112,-1.95826 -2.23043,0.86624 0,0 z m 5.06657,3.73652 c 1.41537,-1.04926 -1.72096,-0.33548 0,0 z M 73.998587,102.2207 c 1.899965,0.46978 7.586116,5.17922 4.23226,0.32625 -1.718239,-0.56431 -0.688404,-5.215888 -2.442441,-4.392301 1.17578,2.177821 0.963761,3.105101 -1.503451,1.732481 -3.103295,-1.677617 -1.743011,0.82968 -1.137231,1.52514 -0.826073,0.21327 1.093176,0.79303 0.853615,0.81135 z m -8.646268,-7.56457 c 0.338704,-1.555633 -3.130824,-8.571096 -1.638383,-3.513829 0.536951,1.05841 0.481856,3.065443 1.638383,3.513829 z m 15.877173,10.84351 c -0.980276,-0.90595 -0.04689,-0.12799 0,0 z m 2.406643,0.62226 c 0,-1.64713 -2.659965,-0.67108 0,0 z m 20.863925,14.5678 c -0.3991,-1.12863 -1.56957,-0.0231 0,0 z m 1.00228,0.81129 c -0.14882,-0.63133 -0.55069,0.12214 0,0 z m 8.26904,5.77104 c 0.79853,-0.64967 -0.99131,-0.0854 0,0 z M 69.667192,95.882301 c 2.274459,-0.976061 -2.436926,-0.695451 0,0 z m 32.987958,23.022969 c -0.0275,-1.63183 -1.45114,0.4058 0,0 z M 68.766767,93.558068 c 1.459398,-0.548763 -1.349259,-0.359686 0,0 z m 4.240518,2.275462 c -0.02753,-0.536647 -0.44881,0.204058 0,0 z m 51.734375,35.13841 c 1.87794,-0.42078 6.16255,1.05841 6.85644,-0.54933 -2.28548,-0.0611 -7.89451,-1.78442 -8.15886,0.40869 l 0.49591,0.0917 0.80677,0.0576 z M 74.356551,96.211716 c 0.0333,-1.65316 -1.162019,-0.06107 0,0 z m -11.15203,-8.571049 c -0.506675,-3.147809 -1.927506,-0.475531 0,0 z m 2.657211,0.741161 c 0.03279,-1.012651 -2.434167,-0.908953 0,0 z m 1.51998,0.823592 c -0.440591,-0.39657 -0.341462,0.497452 0,0 z m 9.563208,6.792792 c 0.451561,-0.457684 -1.065634,-0.33547 0,0 z M 66.371147,87.335631 c -0.258828,-2.37916 -3.084018,-0.356804 0,0 z m -5.452099,-3.919519 c -0.07712,-1.098079 -0.531442,0.41502 0,0 z m 0.812307,-0.677181 c -0.132166,-1.302413 -0.696657,0.164862 0,0 z m 4.480082,2.958749 c 1.89447,-0.823575 -3.450237,-1.708152 -0.385484,-0.152746 z m 59.967613,41.04664 c 1.21156,-1.23226 -1.54203,-0.38159 0,0 z m 7.24189,4.15748 c 0.48758,-1.58615 -1.2253,0.21326 0,0 z M 66.665783,83.111075 c 0.201015,-1.540358 -1.503459,0.304923 0,0 z m -6.377306,-4.727836 c -0.335946,-2.180879 -0.286356,-5.993652 2.984888,-4.706452 -4.369942,0.963885 3.028944,6.021143 2.092723,2.025357 1.839397,0.100881 3.596184,-1.204827 2.629673,0.771708 3.626474,-0.436347 6.132239,-3.919524 9.634793,-3.428474 2.753597,-0.402916 5.705435,-0.701558 8.646263,-1.921603 2.4149,-0.191947 4.736168,-3.071556 3.414442,-4.779713 -3.293286,-0.304924 -6.740775,0.146412 -10.381016,0.951666 -4.034003,0.927283 -7.69627,2.693369 -11.766069,3.446747 -3.965163,0.59175 0.798538,1.625785 -0.338704,1.860618 -2.065188,0.793093 2.469964,1.329912 -0.267101,2.171769 -1.6907,-0.356802 -3.450239,-1.000489 -2.726051,-2.97397 -3.799948,0.54875 -7.140045,2.293797 -4.135884,6.576289 l 0.22027,0.0032 z m 9.163935,-5.139572 c 0.889404,-3.63587 4.771955,2.989185 1.459399,0.488225 -0.393758,-0.329711 -1.04636,-0.594806 -1.459399,-0.488225 z m 0.173489,-1.763032 c 1.285926,-1.058417 0.682888,0.594805 0,0 z m 1.632878,0.02882 c 0.118387,-1.671496 3.739367,0.915062 0.597526,0.600915 z m 2.230412,-0.994378 c 0.8178,-1.058419 0.236807,0.936447 0,0 z m 0.572734,-0.427125 c 1.360276,-1.808742 7.690759,-1.159061 3.02894,-0.176961 -1.239104,-1.037033 -2.194607,0.610081 -3.02894,0.176961 z m 8.260759,-1.412223 c -0.203779,-4.94134 4.108351,1.753865 0,0 z m 2.346057,-0.0173 c 0.853615,-2.488971 3.331837,-1.00049 0.399284,-0.500332 0.06337,0.265153 -0.08818,1.2872 -0.399284,0.500332 z M 65.743345,81.856667 c 2.560835,-1.738587 -2.717787,-1.506813 0,0 z m 1.89447,0.610024 c 0.897666,-1.05841 -1.927513,-0.427118 0,0 z m -5.578767,-4.438009 c 1.459399,-1.250596 -1.73476,-0.472666 0,0 z m 75.640982,52.417848 c 0.0417,-1.44583 -1.11794,0.64969 0,0 z m -7.68248,-5.81069 c 0.22012,-1.66232 -0.99128,0.14347 0,0 z m 9.80276,6.37495 c 2.04591,0.0114 6.20106,-0.70155 1.74851,-0.70155 -0.69941,0.12213 -4.07527,0.0917 -1.74851,0.70155 z M 69.309225,81.392713 c 1.657656,-0.122132 2.588371,-2.022307 -0.322157,-1.915548 -4.515879,-0.518783 3.981683,1.714258 -0.550717,1.073685 -0.611296,0.448452 0.864625,0.963897 0.900426,0.838802 z m 1.459397,0.817469 c -0.173489,-1.177383 -0.51214,0.625299 0,0 z m 1.734754,-5.112177 c 0.715945,-0.988276 -0.991285,-0.26516 0,0 z M 66.996212,66.898116 c 2.957351,-1.113293 6.999622,-2.363889 8.398432,0.548749 -1.420846,-1.891112 -0.572735,-3.75784 0.77101,-0.988268 1.899965,2.800121 2.847212,-1.274978 1.613597,-2.214424 1.404331,1.933824 3.001415,2.848886 0.941725,0.122197 2.244168,-2.989242 -4.488334,0.390235 -6.019343,0.356803 -0.735198,0.366025 -7.59989,1.939933 -5.699916,2.174766 z m 1.734759,-3.67547 c 1.685194,-1.409226 5.832094,0.838804 3.17213,-1.403115 -0.261585,-0.253047 -5.823836,1.698932 -3.17213,1.403115 z m 6.146003,0.280715 c 1.971561,0.05188 -0.853616,-2.937367 1.497945,-1.580018 -0.38547,-1.397005 -2.737065,-1.656279 -3.888057,-2.217535 -0.649847,1.275034 1.321725,3.812771 2.387359,3.797553 z m -5.066598,-6.179773 c 0.682891,-1.02487 -1.197809,0.518776 0,0 z m 2.500265,0.664957 c 3.180387,-0.466899 -0.809562,-1.515922 -0.641592,-0.03459 z m -4.692117,-4.05677 c -2.238667,-3.239295 4.212986,0.542984 1.93577,-2.845831 -1.916496,-1.686771 -3.753136,1.90333 -1.93577,2.845831 z m 28.730905,17.142196 c 1.027101,-2.013137 -4.240517,-2.714695 -0.688386,-0.713777 0.324917,0.122197 0.253305,0.854078 0.688386,0.713777 z"
       id="path2" />
  </g>
</svg>
