<?xml version="1.0" encoding="UTF-8" standalone="no"?>
<!-- Created with Inkscape (http://www.inkscape.org/) -->

<svg
   xmlns:dc="http://purl.org/dc/elements/1.1/"
   xmlns:cc="http://creativecommons.org/ns#"
   xmlns:rdf="http://www.w3.org/1999/02/22-rdf-syntax-ns#"
   xmlns:svg="http://www.w3.org/2000/svg"
   xmlns="http://www.w3.org/2000/svg"
   xmlns:sodipodi="http://sodipodi.sourceforge.net/DTD/sodipodi-0.dtd"
   xmlns:inkscape="http://www.inkscape.org/namespaces/inkscape"
   width="135.46666mm"
   height="135.46666mm"
   viewBox="0 0 135.46666 135.46666"
   version="1.1"
   id="svg8"
   inkscape:version="0.92.3 (2405546, 2018-03-11)"
   sodipodi:docname="docker.svg">
  <defs
     id="defs2">
    <linearGradient
       gradientUnits="userSpaceOnUse"
       id="SVGID_1_"
       x1="1.7255629"
       x2="21.241331"
       y1="8.2995186"
       y2="17.39987">
      <stop
         offset="0"
         style="stop-color:#FFFFFF;stop-opacity:0.2"
         id="stop55" />
      <stop
         offset="1"
         style="stop-color:#FFFFFF;stop-opacity:0"
         id="stop57" />
    </linearGradient>
    <clipPath
       id="a">
      <path
         inkscape:connector-curvature="0"
         d="m 239.03,226.605 -42.13,24.317 c -1.578,0.91 -2.546,2.59 -2.546,4.406 v 48.668 c 0,1.817 0.968,3.496 2.546,4.406 l 42.133,24.336 c 1.575,0.907 3.517,0.907 5.09,0 l 42.126,-24.336 c 1.57,-0.91 2.54,-2.59 2.54,-4.406 v -48.668 c 0,-1.816 -0.97,-3.496 -2.55,-4.406 l -42.12,-24.317 c -0.79,-0.453 -1.67,-0.68 -2.55,-0.68 -0.88,0 -1.76,0.227 -2.55,0.68"
         id="path2-3" />
    </clipPath>
    <linearGradient
       id="b"
       x1="-0.34799999"
       x2="1.251"
       gradientTransform="matrix(-38.064915,77.652126,-77.652126,-38.064915,258.72325,244.62943)"
       gradientUnits="userSpaceOnUse">
      <stop
         offset=".3"
         stop-color="#3E863D"
         id="stop5" />
      <stop
         offset=".5"
         stop-color="#55934F"
         id="stop7" />
      <stop
         offset=".8"
         stop-color="#5AAD45"
         id="stop9" />
    </linearGradient>
    <clipPath
       id="c">
      <path
         inkscape:connector-curvature="0"
         d="m 195.398,307.086 c 0.403,0.523 0.907,0.976 1.5,1.316 l 36.14,20.875 6.02,3.46 c 0.9,0.52 1.926,0.74 2.934,0.665 0.336,-0.027 0.672,-0.09 1,-0.183 l 44.434,-81.36 c -0.34,-0.37 -0.738,-0.68 -1.184,-0.94 l -27.586,-15.93 -14.582,-8.39 c -0.414,-0.24 -0.863,-0.41 -1.32,-0.53 z m 0,0"
         id="path12" />
    </clipPath>
    <linearGradient
       id="d"
       x1="-0.456"
       x2="0.58200002"
       gradientTransform="matrix(106.8057,-78.916731,78.916731,106.8057,235.18824,285.39477)"
       gradientUnits="userSpaceOnUse">
      <stop
         offset=".57"
         stop-color="#3E863D"
         id="stop15" />
      <stop
         offset=".72"
         stop-color="#619857"
         id="stop17" />
      <stop
         offset="1"
         stop-color="#76AC64"
         id="stop19" />
    </linearGradient>
    <clipPath
       id="e">
      <path
         inkscape:connector-curvature="0"
         d="m 241.066,225.953 c -0.707,0.07 -1.398,0.29 -2.035,0.652 l -42.01,24.247 45.3,82.51 c 0.63,-0.09 1.25,-0.3 1.81,-0.624 l 42.13,-24.336 c 1.3,-0.754 2.19,-2.03 2.46,-3.476 l -46.18,-78.89 c -0.34,-0.067 -0.68,-0.102 -1.03,-0.102 -0.14,0 -0.28,0.007 -0.42,0.02"
         id="path22" />
    </clipPath>
    <linearGradient
       id="f"
       x1="0.043000001"
       x2="0.98400003"
       gradientTransform="matrix(97.417,0,0,97.417,192.862,279.652)"
       gradientUnits="userSpaceOnUse">
      <stop
         offset=".16"
         stop-color="#6BBF47"
         id="stop25" />
      <stop
         offset=".38"
         stop-color="#79B461"
         id="stop27" />
      <stop
         offset=".47"
         stop-color="#75AC64"
         id="stop29" />
      <stop
         offset=".7"
         stop-color="#659E5A"
         id="stop31" />
      <stop
         offset=".9"
         stop-color="#3E863D"
         id="stop33" />
    </linearGradient>
  </defs>
  <sodipodi:namedview
     id="base"
     pagecolor="#ffffff"
     bordercolor="#666666"
     borderopacity="1.0"
     inkscape:pageopacity="0.0"
     inkscape:pageshadow="2"
     inkscape:zoom="1"
     inkscape:cx="69.17472"
     inkscape:cy="299.28565"
     inkscape:document-units="mm"
     inkscape:current-layer="layer1"
     showgrid="false"
     inkscape:pagecheckerboard="false"
     showborder="false"
     inkscape:snap-bbox="true"
     inkscape:snap-nodes="true"
     inkscape:window-width="1853"
     inkscape:window-height="1025"
     inkscape:window-x="67"
     inkscape:window-y="27"
     inkscape:window-maximized="1"
     fit-margin-top="0"
     fit-margin-left="0"
     fit-margin-right="0"
     fit-margin-bottom="0" />
  <metadata
     id="metadata5">
    <rdf:RDF>
      <cc:Work
         rdf:about="">
        <dc:format>image/svg+xml</dc:format>
        <dc:type
           rdf:resource="http://purl.org/dc/dcmitype/StillImage" />
        <dc:title></dc:title>
      </cc:Work>
    </rdf:RDF>
  </metadata>
  <g
     inkscape:label="Layer 1"
     inkscape:groupmode="layer"
     id="layer1"
     transform="translate(-33.536957,-26.028858)">
    <g
       id="g4635"
       style="fill:none">
      <rect
         y="26.028858"
         x="33.536957"
         height="135.46666"
         width="135.46666"
         id="rect4587"
         style="fill:none;stroke-width:0.32858005" />
    </g>
    <g
       transform="matrix(1.8741319,0,0,1.793287,-25.465126,156.90941)"
       id="g64" />
    <g
       transform="matrix(1.8741319,0,0,1.793287,-25.465126,156.90941)"
       id="g66" />
    <g
       transform="matrix(1.8741319,0,0,1.793287,-25.465126,156.90941)"
       id="g68" />
    <g
       transform="matrix(1.8741319,0,0,1.793287,-25.465126,156.90941)"
       id="g70" />
    <g
       transform="matrix(1.8741319,0,0,1.793287,-25.465126,156.90941)"
       id="g72" />
    <g
       transform="matrix(1.8741319,0,0,1.793287,-25.465126,156.90941)"
       id="g74" />
    <g
       transform="matrix(1.8741319,0,0,1.793287,-25.465126,156.90941)"
       id="g76" />
    <g
       transform="matrix(1.8741319,0,0,1.793287,-25.465126,156.90941)"
       id="g78" />
    <g
       transform="matrix(1.8741319,0,0,1.793287,-25.465126,156.90941)"
       id="g80" />
    <g
       transform="matrix(1.8741319,0,0,1.793287,-25.465126,156.90941)"
       id="g82" />
    <g
       transform="matrix(1.8741319,0,0,1.793287,-25.465126,156.90941)"
       id="g84" />
    <g
       transform="matrix(1.8741319,0,0,1.793287,-25.465126,156.90941)"
       id="g86" />
    <g
       transform="matrix(1.8741319,0,0,1.793287,-25.465126,156.90941)"
       id="g88" />
    <g
       transform="matrix(1.8741319,0,0,1.793287,-25.465126,156.90941)"
       id="g90" />
    <g
       transform="matrix(1.8741319,0,0,1.793287,-25.465126,156.90941)"
       id="g92" />
    <g
       id="g994"
       transform="matrix(1.6182421,0,0,1.8352222,261.50748,-27.327491)">
      <path
         id="path38"
         d="m -99.444066,87.046937 c -0.244355,0 -0.487031,-0.05956 -0.701264,-0.17417 l -2.23214,-1.227899 c -0.33339,-0.173236 -0.17071,-0.234509 -0.0607,-0.269809 0.44452,-0.144622 0.53473,-0.177278 1.00921,-0.427647 0.0499,-0.02645 0.11514,-0.0171 0.16619,0.01089 l 1.714818,0.945497 c 0.06193,0.03108 0.149794,0.03108 0.207199,0 l 6.686227,-3.586036 c 0.06193,-0.03266 0.102091,-0.09953 0.102091,-0.16795 v -7.168972 c 0,-0.07153 -0.04018,-0.13529 -0.103429,-0.171058 l -6.683551,-3.582928 c -0.06192,-0.03421 -0.14393,-0.03421 -0.205856,0 l -6.682209,3.582928 c -0.0648,0.03421 -0.10594,0.101079 -0.10594,0.169502 v 7.168963 c 0,0.06842 0.0402,0.133739 0.10376,0.166394 l 1.83097,0.982816 c 0.99415,0.461863 1.60169,-0.08242 1.60169,-0.629808 v -7.075661 c 0,-0.101078 0.0854,-0.178834 0.19414,-0.178834 h 0.84687 c 0.10544,0 0.19247,0.07776 0.19247,0.178834 v 7.078769 c 0,1.231633 -0.72302,1.939196 -1.97993,1.939196 -0.38661,0 -0.69122,0 -1.54143,-0.388771 l -1.75398,-0.939272 c -0.43348,-0.233266 -0.70126,-0.668692 -0.70126,-1.133663 v -7.168963 c 0,-0.466526 0.26778,-0.901953 0.70126,-1.132106 l 6.69291,-3.587588 c 0.42344,-0.222377 0.985785,-0.222377 1.405871,0 l 6.684552,3.589144 c 0.431799,0.231709 0.701256,0.66558 0.701256,1.132106 v 7.168964 c 0,0.46497 -0.269457,0.89884 -0.701256,1.132106 l -6.684552,3.587587 c -0.214225,0.115079 -0.456906,0.17417 -0.704606,0.17417"
         style="fill:#689f63;stroke-width:0.16132802"
         inkscape:connector-curvature="0" />
      <path
         id="path40"
         d="m -97.378783,82.107039 c -2.925537,0 -3.538927,-1.247802 -3.538927,-2.294377 0,-0.09953 0.0864,-0.178834 0.19364,-0.178834 h 0.8636 c 0.0954,0 0.175735,0.06454 0.190798,0.152086 0.130542,0.817665 0.518832,1.230076 2.287876,1.230076 1.40921,0 2.00838,-0.295777 2.00838,-0.990124 0,-0.399659 -0.170715,-0.696684 -2.359845,-0.895733 -1.830971,-0.16795 -2.962359,-0.542725 -2.962359,-1.903429 0,-1.253404 1.138082,-1.999847 3.044367,-1.999847 2.140597,0 3.201687,0.690459 3.335583,2.174017 0.005,0.05132 -0.01504,0.101079 -0.05189,0.138402 -0.03682,0.03575 -0.0887,0.05754 -0.14226,0.05754 h -0.868622 c -0.09038,0 -0.169036,-0.0591 -0.187448,-0.139958 -0.209206,-0.859966 -0.714649,-1.135219 -2.088714,-1.135219 -1.538082,0 -1.717162,0.49763 -1.717162,0.870854 0,0.45253 0.21088,0.584713 2.286201,0.839745 2.055244,0.253481 3.030981,0.611153 3.030981,1.953192 0,1.352932 -1.215068,2.128918 -3.333908,2.128918 m 8.143971,-7.60283 h 0.224273 c 0.184099,0 0.219244,-0.119743 0.219244,-0.189722 0,-0.183502 -0.135566,-0.183502 -0.21088,-0.183502 h -0.230962 z m -0.272801,-0.587825 h 0.497074 c 0.170711,0 0.505439,0 0.505439,0.35456 0,0.247261 -0.170711,0.298576 -0.272802,0.32968 0.199162,0.01243 0.21255,0.133738 0.239331,0.304796 0.01338,0.107303 0.03516,0.292356 0.07532,0.354559 h -0.306282 c -0.0083,-0.0622 -0.05523,-0.404323 -0.05523,-0.422982 -0.02007,-0.0762 -0.04854,-0.113523 -0.150629,-0.113523 h -0.252719 v 0.538061 h -0.2795 z m -0.597496,0.668688 c 0,0.556721 0.483687,1.007699 1.077833,1.007699 0.599165,0 1.082846,-0.460306 1.082846,-1.007699 0,-0.558277 -0.490375,-1.001476 -1.084521,-1.001476 -0.585777,0 -1.077832,0.436979 -1.077832,0.99992 m 2.369889,0.0047 c 0,0.65936 -0.580758,1.197422 -1.288708,1.197422 -0.702935,0 -1.288712,-0.531842 -1.288712,-1.197422 0,-0.678015 0.599165,-1.197417 1.288712,-1.197417 0.694562,0 1.287033,0.520954 1.287033,1.197417"
         style="fill:#689f63;stroke-width:0.16132802"
         inkscape:connector-curvature="0" />
      <path
         id="path42"
         d="m -120.14894,58.996234 c 0,-0.286136 -0.16234,-0.548945 -0.42812,-0.691237 l -7.0889,-3.789752 c -0.11967,-0.06531 -0.25373,-0.09953 -0.38963,-0.104192 h -0.0733 c -0.13591,0.0047 -0.26996,0.03888 -0.39164,0.104192 l -7.08857,3.789752 c -0.2641,0.143068 -0.42879,0.405878 -0.42879,0.692015 l 0.0156,10.207605 c 0,0.141514 0.0787,0.273696 0.21256,0.343676 0.13054,0.07464 0.29456,0.07464 0.4251,0 l 4.21425,-2.242439 c 0.26611,-0.147111 0.42845,-0.407122 0.42845,-0.69046 v -4.768681 c 0,-0.284581 0.16235,-0.54739 0.42762,-0.688905 l 1.79415,-0.960111 c 0.13323,-0.07153 0.2795,-0.10699 0.42846,-0.10699 0.14661,0 0.29623,0.03515 0.42577,0.106835 l 1.79332,0.9598 c 0.26544,0.141514 0.42845,0.404323 0.42845,0.688905 v 4.768371 c 0,0.283026 0.16452,0.54428 0.42929,0.690458 l 4.21157,2.240885 c 0.13222,0.07309 0.29674,0.07309 0.42845,0 0.12988,-0.06998 0.21222,-0.202162 0.21222,-0.343676 z m 33.45088,5.314674 c 0,0.07107 -0.04066,0.136848 -0.107115,0.171993 l -2.434823,1.304098 c -0.06611,0.0353 -0.147782,0.0353 -0.213726,0 l -2.43516,-1.304098 c -0.06695,-0.0353 -0.10711,-0.101081 -0.10711,-0.171993 V 61.69898 c 0,-0.07122 0.04018,-0.136848 0.10544,-0.172615 l 2.433485,-1.306275 c 0.06695,-0.03577 0.148954,-0.03577 0.2159,0 l 2.435155,1.306275 c 0.06695,0.03577 0.107114,0.101392 0.107114,0.172615 z m 0.657742,-19.345623 c -0.132885,-0.06873 -0.294563,-0.06687 -0.425774,0.0042 -0.130546,0.07153 -0.211217,0.202162 -0.211217,0.343675 v 10.10808 c 0,0.09953 -0.0569,0.191276 -0.149623,0.241039 -0.09205,0.04976 -0.206695,0.04976 -0.299582,0 l -1.775743,-0.950315 c -0.264438,-0.142135 -0.590128,-0.142135 -0.855566,0 l -7.09125,3.802661 c -0.264941,0.141513 -0.428455,0.404323 -0.428455,0.687349 v 7.607497 c 0,0.284581 0.163514,0.545836 0.428455,0.688904 l 7.09125,3.805302 c 0.264769,0.141514 0.590796,0.141514 0.856405,0 l 7.091246,-3.806857 c 0.264437,-0.143068 0.428454,-0.404323 0.428454,-0.688904 v -18.95965 c 0,-0.288625 -0.169036,-0.554079 -0.440168,-0.695125 z m 23.614012,16.664959 c 0.263432,-0.142134 0.425608,-0.404633 0.425608,-0.68766 V 59.09887 c 0,-0.283648 -0.162347,-0.54537 -0.426277,-0.688127 l -7.046061,-3.800638 c -0.266113,-0.143068 -0.592476,-0.143068 -0.858584,0 l -7.089575,3.802194 c -0.266112,0.143068 -0.428455,0.404323 -0.428455,0.688904 v 7.604387 c 0,0.286136 0.165692,0.550502 0.431804,0.692015 l 7.044387,3.73066 c 0.259413,0.138402 0.577408,0.139959 0.840171,0.0047 l 4.261106,-2.200453 c 0.133896,-0.06998 0.219249,-0.202162 0.219249,-0.345229 0,-0.143069 -0.08201,-0.276806 -0.215899,-0.346785 l -7.133089,-3.803756 c -0.133892,-0.06998 -0.2159,-0.202162 -0.2159,-0.343676 V 61.70756 c 0,-0.142446 0.08033,-0.273695 0.214225,-0.344608 l 2.219256,-1.189643 c 0.132221,-0.07153 0.294563,-0.07153 0.426784,0 l 2.22093,1.189643 c 0.132217,0.06998 0.214225,0.202162 0.214225,0.343675 v 1.875437 c 0,0.141514 0.08201,0.273696 0.214229,0.34523 0.132217,0.06998 0.296234,0.06998 0.428455,-0.0015 z m 0,0"
         style="fill:#333333;fill-rule:evenodd;stroke-width:0.16132802"
         inkscape:connector-curvature="0" />
      <path
         id="path44"
         d="m -70.006096,61.27444 c 0.05021,-0.02752 0.11314,-0.02752 0.164017,0 l 1.360677,0.729337 c 0.05088,0.02737 0.08201,0.07776 0.08201,0.132184 v 1.460227 c 0,0.05443 -0.03112,0.104814 -0.08201,0.132183 l -1.360677,0.729338 c -0.05088,0.02752 -0.113804,0.02752 -0.164017,0 l -1.359837,-0.729338 c -0.05188,-0.02737 -0.08368,-0.07775 -0.08368,-0.132183 v -1.460227 c 0,-0.05443 0.03013,-0.104814 0.08201,-0.132184 z m 0,0"
         style="fill:#689f63;fill-rule:evenodd;stroke-width:0.16132802"
         inkscape:connector-curvature="0" />
      <g
         id="g48"
         transform="matrix(0.16736485,0,0,0.15550893,-149.14356,19.408947)"
         clip-path="url(#a)">
        <path
           id="path46"
           d="m 331.363,246.793 -118.715,-58.19 -60.87,124.174 118.712,58.193 z m 0,0"
           inkscape:connector-curvature="0"
           style="fill:url(#b)" />
      </g>
      <g
         id="g52"
         transform="matrix(0.16736485,0,0,0.15550893,-149.14356,19.408947)"
         clip-path="url(#c)">
        <path
           id="path50"
           d="m 144.07,264.004 83.825,113.453 110.86,-81.906 -83.83,-113.45 z m 0,0"
           inkscape:connector-curvature="0"
           style="fill:url(#d)" />
      </g>
      <g
         id="g56"
         transform="matrix(0.16736485,0,0,0.15550893,-149.14356,19.408947)"
         clip-path="url(#e)">
        <path
           id="path54"
           d="m 197.02,225.934 v 107.43 h 91.683 v -107.43 z m 0,0"
           inkscape:connector-curvature="0"
           style="fill:url(#f)" />
      </g>
    </g>
  </g>
</svg>
